<svg width="77" height="76" viewBox="0 0 77 76" fill="none" xmlns="http://www.w3.org/2000/svg">
<ellipse cx="38.5" cy="38" rx="38.5" ry="38" fill="#0A0A0B"/>
<path d="M46.02 15C43.4707 15.1474 40.544 16.5605 38.8039 18.3601C37.2318 19.9969 35.9915 22.4278 36.4978 24.7796C39.2683 24.8522 42.0491 23.4025 43.714 21.5699C45.2684 19.8561 46.4468 17.464 46.02 15ZM46.1712 24.7753C42.1714 24.7753 40.499 27.2202 37.7286 27.2202C34.8786 27.2202 32.2732 24.93 28.8239 24.93C24.1321 24.9322 17 29.2566 17 39.4447C17 48.7133 25.441 58.9997 30.2058 58.9997C33.1001 59.0283 33.8018 57.189 37.7286 57.1692C41.6598 57.1406 42.5081 59.0239 45.4068 58.9997C48.6703 58.9755 51.219 55.4072 53.0807 52.5802C54.4162 50.5562 54.9652 49.5229 56 47.2349C48.321 45.2989 46.7932 32.9775 56 30.43C54.2621 27.4798 49.1893 24.7753 46.1712 24.7753Z" fill="#FAFAFA"/>
</svg>
