<!-- <svg width="36" height="37" viewBox="0 0 36 37" fill="none" xmlns="http://www.w3.org/2000/svg">
<path d="M10.5 21.5H19.5375C19.9625 21.5 20.3125 21.356 20.5875 21.068C20.8625 20.781 21 20.425 21 20C21 19.575 20.8565 19.2185 20.5695 18.9305C20.2815 18.6435 19.925 18.5 19.5 18.5H10.4625C10.0375 18.5 9.6875 18.6435 9.4125 18.9305C9.1375 19.2185 9 19.575 9 20C9 20.425 9.1435 20.781 9.4305 21.068C9.7185 21.356 10.075 21.5 10.5 21.5ZM10.5 17H25.5375C25.9625 17 26.3125 16.856 26.5875 16.568C26.8625 16.281 27 15.925 27 15.5C27 15.075 26.856 14.7185 26.568 14.4305C26.281 14.1435 25.925 14 25.5 14H10.4625C10.0375 14 9.6875 14.1435 9.4125 14.4305C9.1375 14.7185 9 15.075 9 15.5C9 15.925 9.1435 16.281 9.4305 16.568C9.7185 16.856 10.075 17 10.5 17ZM10.5 12.5H25.5375C25.9625 12.5 26.3125 12.3565 26.5875 12.0695C26.8625 11.7815 27 11.425 27 11C27 10.575 26.856 10.2185 26.568 9.9305C26.281 9.6435 25.925 9.5 25.5 9.5H10.4625C10.0375 9.5 9.6875 9.6435 9.4125 9.9305C9.1375 10.2185 9 10.575 9 11C9 11.425 9.1435 11.7815 9.4305 12.0695C9.7185 12.3565 10.075 12.5 10.5 12.5ZM3 29.8625V6.5C3 5.675 3.294 4.9685 3.882 4.3805C4.469 3.7935 5.175 3.5 6 3.5H30C30.825 3.5 31.5315 3.7935 32.1195 4.3805C32.7065 4.9685 33 5.675 33 6.5V24.5C33 25.325 32.7065 26.0315 32.1195 26.6195C31.5315 27.2065 30.825 27.5 30 27.5H9L5.55 30.95C5.075 31.425 4.531 31.531 3.918 31.268C3.306 31.006 3 30.5375 3 29.8625ZM6 26.2625L7.7625 24.5H30V6.5H6V26.2625Z" fill="black"/>
</svg> -->

<svg width="30" height="29" viewBox="0 0 30 29" fill="none" xmlns="http://www.w3.org/2000/svg">
<path d="M7.5 18.5H16.5375C16.9625 18.5 17.3125 18.356 17.5875 18.068C17.8625 17.781 18 17.425 18 17C18 16.575 17.8565 16.2185 17.5695 15.9305C17.2815 15.6435 16.925 15.5 16.5 15.5H7.4625C7.0375 15.5 6.6875 15.6435 6.4125 15.9305C6.1375 16.2185 6 16.575 6 17C6 17.425 6.1435 17.781 6.4305 18.068C6.7185 18.356 7.075 18.5 7.5 18.5ZM7.5 14H22.5375C22.9625 14 23.3125 13.856 23.5875 13.568C23.8625 13.281 24 12.925 24 12.5C24 12.075 23.856 11.7185 23.568 11.4305C23.281 11.1435 22.925 11 22.5 11H7.4625C7.0375 11 6.6875 11.1435 6.4125 11.4305C6.1375 11.7185 6 12.075 6 12.5C6 12.925 6.1435 13.281 6.4305 13.568C6.7185 13.856 7.075 14 7.5 14ZM7.5 9.5H22.5375C22.9625 9.5 23.3125 9.3565 23.5875 9.0695C23.8625 8.7815 24 8.425 24 8C24 7.575 23.856 7.2185 23.568 6.9305C23.281 6.6435 22.925 6.5 22.5 6.5H7.4625C7.0375 6.5 6.6875 6.6435 6.4125 6.9305C6.1375 7.2185 6 7.575 6 8C6 8.425 6.1435 8.7815 6.4305 9.0695C6.7185 9.3565 7.075 9.5 7.5 9.5ZM0 26.8625V3.5C0 2.675 0.294 1.9685 0.882 1.3805C1.469 0.7935 2.175 0.5 3 0.5H27C27.825 0.5 28.5315 0.7935 29.1195 1.3805C29.7065 1.9685 30 2.675 30 3.5V21.5C30 22.325 29.7065 23.0315 29.1195 23.6195C28.5315 24.2065 27.825 24.5 27 24.5H6L2.55 27.95C2.075 28.425 1.531 28.531 0.918 28.268C0.306 28.006 0 27.5375 0 26.8625ZM3 23.2625L4.7625 21.5H27V3.5H3V23.2625Z" fill="black"/>
</svg>




