<svg width="36" height="36" viewBox="0 0 36 36" fill="none" xmlns="http://www.w3.org/2000/svg">
<rect x="0.5" y="0.5" width="35" height="35" rx="17.5" fill="#FAFAFA"/>
<rect x="0.5" y="0.5" width="35" height="35" rx="17.5" stroke="black"/>
<path d="M17 27L13.825 24.15C12.625 23.0667 11.596 22.1 10.738 21.25C9.87933 20.4 9.171 19.6 8.613 18.85C8.05433 18.1 7.646 17.375 7.388 16.675C7.12933 15.975 7 15.2417 7 14.475C7 12.9083 7.525 11.604 8.575 10.562C9.625 9.52067 10.9333 9 12.5 9C13.3667 9 14.1917 9.18333 14.975 9.55C15.7583 9.91667 16.4333 10.4333 17 11.1C17.5667 10.4333 18.2417 9.91667 19.025 9.55C19.8083 9.18333 20.6333 9 21.5 9C22.85 9 23.9833 9.379 24.9 10.137C25.8167 10.8957 26.4417 11.85 26.775 13H24.65C24.35 12.3333 23.9083 11.8333 23.325 11.5C22.7417 11.1667 22.1333 11 21.5 11C20.65 11 19.9167 11.2293 19.3 11.688C18.6833 12.146 18.1083 12.75 17.575 13.5H16.425C15.9083 12.75 15.321 12.146 14.663 11.688C14.0043 11.2293 13.2833 11 12.5 11C11.55 11 10.729 11.329 10.037 11.987C9.34567 12.6457 9 13.475 9 14.475C9 15.025 9.11667 15.5833 9.35 16.15C9.58333 16.7167 10 17.371 10.6 18.113C11.2 18.8543 12.0167 19.7207 13.05 20.712C14.0833 21.704 15.4 22.9 17 24.3C17.4333 23.9167 17.9417 23.475 18.525 22.975C19.1083 22.475 19.575 22.0583 19.925 21.725L20.15 21.95L20.637 22.438L21.125 22.925L21.35 23.15C20.9833 23.4833 20.5167 23.8957 19.95 24.387C19.3833 24.879 18.8833 25.3167 18.45 25.7L17 27ZM24 23V20H21V18H24V15H26V18H29V20H26V23H24Z" fill="black"/>
</svg>
