<svg width="51" height="50" viewBox="0 0 51 50" fill="none" xmlns="http://www.w3.org/2000/svg">
<path d="M22.8085 34.75L34.5331 26C35.211 25.5 35.211 24.5 34.5331 24L22.8085 15.25C21.9799 14.625 20.7999 15.225 20.7999 16.25V33.75C20.7999 34.775 21.9799 35.375 22.8085 34.75ZM25.8212 0C11.9625 0 0.714844 11.2 0.714844 25C0.714844 38.8 11.9625 50 25.8212 50C39.68 50 50.9276 38.8 50.9276 25C50.9276 11.2 39.68 0 25.8212 0ZM25.8212 45C14.7493 45 5.73612 36.025 5.73612 25C5.73612 13.975 14.7493 5 25.8212 5C36.8931 5 45.9063 13.975 45.9063 25C45.9063 36.025 36.8931 45 25.8212 45Z" fill="#FAFAFA"/>
</svg>
